<svg width="27" height="30" viewBox="0 0 27 30" fill="none" xmlns="http://www.w3.org/2000/svg">
<path d="M25.613 12.866C24.8394 12.0683 23.6615 11.7209 22.3926 11.7329C22.3799 11.733 18.5518 11.7075 16.6345 11.8135L10.4978 1.0635C10.364 0.826966 10.0838 0.718687 9.84772 0.8123L8.03128 1.53632C7.74684 1.65001 7.57149 2.05086 7.66382 2.37604L10.3415 11.9965L3.98622 12.6809C3.74009 12.1401 3.43746 11.5588 3.0185 11.1073C2.75987 10.8284 2.45166 10.5862 2.04554 10.5418C1.63939 10.4975 1.19389 10.7096 0.865229 11.0893C0.606499 11.3882 0.382588 11.8322 0.291682 12.3819C0.290785 12.3883 0.224432 18.1778 0.225353 18.1855C0.303718 18.7326 0.517591 19.1699 0.769549 19.461C1.08964 19.8308 1.53048 20.0295 1.93775 19.9727C2.34504 19.9159 2.65889 19.6642 2.92398 19.3774C3.35335 18.9128 3.66946 18.3222 3.92801 17.7736L10.2698 18.2644L7.3713 27.9699C7.27142 28.2979 7.43772 28.6937 7.7197 28.7987L9.52022 29.4675C9.75421 29.554 10.037 29.4371 10.1763 29.1964L16.5608 18.2554C18.4764 18.3029 22.3064 18.1606 22.3192 18.1604C23.6729 18.1318 24.9319 17.6903 25.7193 16.7521C26.1364 16.2553 26.4418 15.6077 26.45 14.8914C26.4582 14.1751 26.1676 13.5222 25.7617 13.0378C25.7139 12.9807 25.6646 12.9192 25.613 12.866ZM24.935 13.9644C25.1846 14.2623 25.3154 14.6134 25.3135 14.9015C25.3088 15.1897 25.17 15.5449 24.9134 15.8505C24.4578 16.3933 23.4491 16.8303 22.3028 16.8478C22.2902 16.8475 18.3007 16.9956 16.2871 16.9395C16.0957 16.9355 15.9029 17.0519 15.794 17.2372L9.47987 28.0538L8.62968 27.7331L11.5739 17.8746C11.6827 17.4994 11.4319 17.0561 11.0939 17.026L3.66697 16.443C3.44243 16.4223 3.20928 16.5731 3.10404 16.807C2.84544 17.3873 2.47886 18.0821 2.16263 18.4243C2.00452 18.5954 1.87976 18.6614 1.82709 18.6688C1.77443 18.6761 1.73389 18.6934 1.58393 18.5202C1.46855 18.3869 1.40354 18.2568 1.35798 17.9651C1.35779 17.9639 1.41859 12.5701 1.41966 12.5678C1.47187 12.2746 1.53993 12.1425 1.65839 12.0056C1.81236 11.8277 1.8525 11.8438 1.90502 11.8496C1.95752 11.8553 2.08087 11.9175 2.2351 12.0839C2.54364 12.4165 2.89438 13.1004 3.13986 13.673C3.23975 13.9038 3.46953 14.0475 3.69466 14.02L11.1375 13.2101C11.4763 13.1697 11.7374 12.7186 11.6371 12.3466L8.91722 2.57452L9.77504 2.22779L15.844 12.8555C15.9487 13.0375 16.139 13.1481 16.3305 13.1382C18.3461 13.0207 22.3337 13.0471 22.3462 13.0464C23.4926 13.0289 24.4916 13.4353 24.935 13.9644Z" fill="#0150B1"/>
</svg>
